<svg clip-rule="evenodd" fill-rule="evenodd" height="512" image-rendering="optimizeQuality" shape-rendering="geometricPrecision" text-rendering="geometricPrecision" viewBox="0 0 512 512" width="512" xmlns="http://www.w3.org/2000/svg"><g id="Layer_x0020_1"><path d="m44 115c-2 0-4-1-6-3-1-2-1-5 0-8l61-101c2-4 6-5 10-3l101 62c2 1 4 4 3 7 0 2-2 5-5 5l-162 40c-1 1-1 1-2 1z"/><path d="m141 357c-1 0-2 0-3-1-2-1-3-2-4-4l-1-4 95-79 14 55c1 4-1 8-5 9l-94 24c-1 0-1 0-2 0zm-12-27-10-38h1l94-79 10 38zm-14-56-10-39 95-78 9 38zm-15-57-9-38 95-79 9 39zm-14-56-10-40 83-20z"/><path d="m208 423c-3 0-6-2-6-5l-21-78c-1-4 2-8 5-9 4-1 8 2 9 5l20 79c1 3-1 7-5 8 0 0-1 0-2 0z"/><path d="m264 404c-1 0-2 0-2 0-28-13-49-35-65-67-2-3 0-7 3-9 4-2 8 0 10 3 14 29 33 49 57 60 4 2 5 6 4 9s-4 4-7 4z"/><path d="m149 433c-1 0-3 0-4-1-3-2-4-7-2-10 17-21 24-48 23-80 0-3 3-7 7-7s7 3 7 7c1 35-7 64-25 89-2 1-4 2-6 2z"/><g id="_405973536"><path d="m269 408c-1-1-2-2-2-3-1-1-1-3-1-5l1-4 122-21-16 55c-1 4-5 6-8 5l-94-26c-1-1-1-1-2-1zm3-30 11-38 122-21-11 38zm16-56 11-38 122-20-11 37zm16-56 11-38 121-20-10 38c-1 0-1 0-1 0zm16-56 11-39 82 24z"/><path d="m306 149c-1-1-3-3-3-5 0-3 1-5 4-7l103-57c4-2 8-1 10 3l57 103c1 3 1 6-1 8s-5 3-7 2l-161-46c-1 0-1 0-2-1z"/><path d="m294 499c-2-2-4-5-3-8l22-78c1-4 5-6 9-5 3 1 5 5 4 9l-21 78c-1 3-5 6-9 4 0 0-1 0-2 0z"/><path d="m353 510c-1 0-2-1-3-2-17-24-24-54-22-89 0-4 3-7 7-7s7 4 7 8c-2 32 4 58 20 80 2 4 1 8-2 10-2 2-5 2-7 0z"/><path d="m238 478c-1-1-2-2-3-3-1-4 0-8 4-10 25-10 45-30 59-57 2-4 6-5 10-3 3 2 5 6 3 9-17 31-39 52-67 64-2 1-4 1-6 0z"/></g></g></svg>